<svg width="42" height="43" viewBox="0 0 42 43" fill="none" xmlns="http://www.w3.org/2000/svg">
<path d="M32.214 7.439C31.7156 7.439 31.2284 7.59032 30.814 7.87381C30.3995 8.1573 30.0766 8.56024 29.8858 9.03168C29.6951 9.50311 29.6452 10.0219 29.7424 10.5223C29.8397 11.0228 30.0797 11.4825 30.4321 11.8433C30.7845 12.2042 31.2335 12.4499 31.7224 12.5494C32.2112 12.649 32.7179 12.5979 33.1784 12.4026C33.6388 12.2073 34.0324 11.8767 34.3093 11.4524C34.5862 11.0281 34.734 10.5293 34.734 10.019C34.734 9.33474 34.4685 8.67851 33.9959 8.19467C33.5233 7.71082 32.8823 7.439 32.214 7.439ZM41.874 12.642C41.8332 10.8581 41.5068 9.09322 40.908 7.4175C40.374 5.98373 39.543 4.68545 38.472 3.612C37.4321 2.50997 36.1611 1.66448 34.755 1.1395C33.1226 0.507746 31.3968 0.166001 29.652 0.129C27.426 -1.20141e-07 26.712 0 21 0C15.288 0 14.574 -1.20141e-07 12.348 0.129C10.6032 0.166001 8.87742 0.507746 7.245 1.1395C5.84152 1.66979 4.57156 2.51456 3.528 3.612C2.45159 4.67663 1.62577 5.97795 1.113 7.4175C0.495938 9.08879 0.162141 10.8557 0.126 12.642C-1.17347e-07 14.921 0 15.652 0 21.5C0 27.348 -1.17347e-07 28.079 0.126 30.358C0.162141 32.1443 0.495938 33.9112 1.113 35.5825C1.62577 37.0221 2.45159 38.3234 3.528 39.388C4.57156 40.4854 5.84152 41.3302 7.245 41.8605C8.87742 42.4923 10.6032 42.834 12.348 42.871C14.574 43 15.288 43 21 43C26.712 43 27.426 43 29.652 42.871C31.3968 42.834 33.1226 42.4923 34.755 41.8605C36.1611 41.3355 37.4321 40.49 38.472 39.388C39.5477 38.3185 40.3795 37.0191 40.908 35.5825C41.5068 33.9068 41.8332 32.1419 41.874 30.358C41.874 28.079 42 27.348 42 21.5C42 15.652 42 14.921 41.874 12.642ZM38.094 30.1C38.0787 31.4648 37.8373 32.817 37.38 34.099C37.0447 35.0347 36.5061 35.8801 35.805 36.5715C35.1239 37.2821 34.2998 37.8323 33.39 38.184C32.1378 38.6522 30.817 38.8993 29.484 38.915C27.384 39.0225 26.607 39.044 21.084 39.044C15.561 39.044 14.784 39.044 12.684 38.915C11.2999 38.9415 9.92165 38.7233 8.61 38.27C7.74014 37.9004 6.95385 37.3515 6.3 36.6575C5.60299 35.9668 5.07117 35.1207 4.746 34.185C4.2333 32.8846 3.94893 31.5017 3.906 30.1C3.906 27.95 3.78 27.1545 3.78 21.5C3.78 15.8455 3.78 15.05 3.906 12.9C3.91541 11.5048 4.1642 10.1221 4.641 8.815C5.0107 7.90751 5.57816 7.09857 6.3 6.45C6.93801 5.71076 7.7265 5.12366 8.61 4.73C9.89006 4.25709 11.2392 4.00992 12.6 3.999C14.7 3.999 15.477 3.87 21 3.87C26.523 3.87 27.3 3.87 29.4 3.999C30.733 4.01465 32.0538 4.26183 33.306 4.73C34.2603 5.0926 35.1168 5.68212 35.805 6.45C36.4932 7.11043 37.0309 7.91788 37.38 8.815C37.8467 10.1242 38.0883 11.5063 38.094 12.9C38.199 15.05 38.22 15.8455 38.22 21.5C38.22 27.1545 38.199 27.95 38.094 30.1ZM21 10.4705C18.8702 10.4748 16.7894 11.1252 15.0206 12.3397C13.2517 13.5543 11.8742 15.2783 11.062 17.2941C10.2499 19.3098 10.0395 21.5268 10.4576 23.6649C10.8756 25.803 11.9033 27.7663 13.4108 29.3066C14.9182 30.847 16.8378 31.8953 18.927 32.3191C21.0162 32.743 23.1812 32.5233 25.1485 31.6879C27.1158 30.8524 28.797 29.4387 29.9799 27.6254C31.1627 25.8121 31.794 23.6805 31.794 21.5C31.7968 20.049 31.5193 18.6117 30.9776 17.2709C30.4359 15.93 29.6406 14.712 28.6374 13.687C27.6343 12.662 26.4431 11.8501 25.1324 11.2981C23.8217 10.7461 22.4173 10.4648 21 10.4705ZM21 28.6595C19.6169 28.6595 18.2649 28.2396 17.1149 27.4529C15.9649 26.6662 15.0686 25.5481 14.5393 24.2398C14.01 22.9316 13.8715 21.4921 14.1414 20.1033C14.4112 18.7144 15.0772 17.4387 16.0552 16.4375C17.0332 15.4362 18.2792 14.7543 19.6357 14.4781C20.9922 14.2018 22.3983 14.3436 23.6761 14.8855C24.9539 15.4274 26.0461 16.345 26.8145 17.5224C27.5829 18.6998 27.993 20.084 27.993 21.5C27.993 22.4402 27.8121 23.3712 27.4607 24.2398C27.1093 25.1085 26.5942 25.8977 25.9448 26.5625C25.2954 27.2274 24.5245 27.7547 23.6761 28.1145C22.8277 28.4743 21.9183 28.6595 21 28.6595Z" fill="black"/>
</svg>
