<svg width="42" height="43" viewBox="0 0 42 43" fill="none" xmlns="http://www.w3.org/2000/svg">
<path d="M30.8043 25.8215C30.3824 25.6067 27.6395 24.3184 27.2175 24.1036C26.7956 23.8889 26.3736 23.8889 25.9516 24.3184C25.5296 24.7478 24.6857 26.0362 24.2637 26.4657C24.0527 26.8951 23.6307 26.8951 23.2087 26.6804C21.7318 26.0362 20.2549 25.1773 18.989 24.1036C17.934 23.03 16.8791 21.7416 16.0351 20.4532C15.8241 20.0237 16.0351 19.5943 16.2461 19.3795C16.4571 19.1648 16.6681 18.7353 17.0901 18.5206C17.3011 18.3059 17.5121 17.8764 17.5121 17.6617C17.723 17.4469 17.723 17.0175 17.5121 16.8027C17.3011 16.588 16.2461 14.0112 15.8241 12.9376C15.6132 11.4345 15.1912 11.4345 14.7692 11.4345H13.7143C13.2923 11.4345 12.6593 11.8639 12.4483 12.0787C11.1824 13.367 10.5494 14.8702 10.5494 16.588C10.7604 18.5206 11.3934 20.4532 12.6593 22.171C14.9802 25.6067 17.934 28.3983 21.5208 30.1161C22.5758 30.5456 23.4197 30.975 24.4747 31.1898C25.5296 31.6192 26.5846 31.6192 27.8505 31.4045C29.3274 31.1898 30.5933 30.1161 31.4373 28.8277C31.8593 27.9688 31.8593 27.1099 31.6483 26.2509L30.8043 25.8215ZM36.0791 6.2809C27.8505 -2.09363 14.5582 -2.09363 6.32966 6.2809C-0.421977 13.1523 -1.68791 23.6742 2.95384 32.0487L0 43L11.1824 39.9938C14.3472 41.7116 17.723 42.5705 21.0989 42.5705C32.7032 42.5705 41.9867 33.1223 41.9867 21.3121C42.1977 15.7291 39.8768 10.3608 36.0791 6.2809ZM30.3824 36.3433C27.6395 38.0612 24.4747 39.1348 21.0989 39.1348C17.934 39.1348 14.9802 38.2759 12.2373 36.7728L11.6044 36.3433L5.06373 38.0612L6.75164 31.6192L6.32966 30.975C1.26593 22.3858 3.79779 11.6492 12.0264 6.2809C20.2549 0.91261 30.8043 3.70412 35.8681 11.8639C40.9318 20.2385 38.6109 31.1898 30.3824 36.3433Z" fill="black"/>
</svg>
